<svg width="316" height="316" viewBox="0 0 316 316" fill="none" xmlns="http://www.w3.org/2000/svg">
<circle cx="158" cy="158" r="155" stroke="#63B2DB" stroke-width="6"/>
<path d="M139.3 55.6C137 56.4 133.1 58.9 130.5 61.2L125.9 65.2L109.2 67.2C99.2 68.4 92 69.7 91.1 70.5C90 71.6 90 73.3 90.9 80.1C92.4 91.3 92.3 92.7 90.1 93.3C89.1 93.5 86 97.5 83.2 102.1L78.1 110.6L75 170.4C72.6 216.4 72.2 230.5 73.1 231.6C74.1 232.8 83.3 233 131.2 233C175.8 233 188.1 233.3 188.4 234.3C191.7 245.8 197.8 253.3 207.8 258.2C213.8 261.2 215.3 261.5 223.5 261.5C231.4 261.5 233.2 261.2 238.4 258.6C246 254.9 252.4 248.5 255.8 241.2C258.1 236.3 258.5 234.2 258.5 226.5C258.4 218.8 258 216.7 255.7 212C250.6 201.4 239.3 193.1 228 191.5C223.4 190.9 223 190.6 222.6 187.7C222.3 185.9 221.3 167.9 220.4 147.5L218.6 110.5L213.7 102.5C208.1 93.6 207.6 93 203.9 93C201.4 93 201.4 93 202.4 87.9C203.3 83.5 203.2 82.6 201.8 81.6C200.8 80.9 194.2 79 187 77.4C174.3 74.6 174 74.5 173 71.4C168.8 58.7 152.1 50.8 139.3 55.6ZM154.3 61.1C158.2 62.1 166 68.7 166 71C166 71.9 164.8 72.1 161.6 71.6C156.4 70.8 155.9 71.3 153.9 80.3C153 84.6 152.3 86 151.1 85.8C149.9 85.5 149.2 83 148.2 75C147.5 69.3 146.4 64.2 145.7 63.8C145 63.3 142.7 63.2 140.5 63.5L136.5 64L140.5 62C145 59.8 148.8 59.5 154.3 61.1ZM142.6 79.1L143.5 88.1L141 88.7C139.6 88.9 132.9 90.6 126 92.3L113.5 95.5L113.6 98.5C113.6 100.1 114 103 114.4 104.7L115.2 108H107.7H100.3L98.5 92C97.5 83.2 97 75.7 97.3 75.3C98 74.7 132.2 70.3 138.1 70.1L141.6 70L142.6 79.1ZM179.5 81.9C190.1 84.4 195.6 86.2 195.8 87.1C195.9 87.9 195 92.8 193.7 98L191.4 107.5L182.4 107.8L173.4 108.1L170.5 95.8L167.5 83.5L163.8 83.7C159.9 83.9 159.3 83.1 160.6 79.6C161.4 77.5 160.8 77.5 179.5 81.9ZM164.9 98.5C166 103.1 167 107.2 167 107.5C167 107.8 156.7 108 144.1 108H121.2L120.5 104.4C120.2 102.4 120.1 100.6 120.4 100.3C120.9 99.8 159.3 90.3 161.6 90.1C162.2 90 163.7 93.8 164.9 98.5ZM214.3 149.2C216.7 196.4 217.2 191.3 210.1 193.9C199.1 197.9 189.9 209.4 188.2 221.2L187.5 226.5L133.5 226.8C103.9 226.9 79.3 226.7 78.9 226.3C78.6 225.8 79.5 201.9 81.1 173C82.6 144.1 83.9 119.3 83.9 117.7L84 115H148.3H212.6L214.3 149.2ZM235 200.1C243.7 204 249.9 212 252.1 221.9C253.4 228.1 251.4 236.9 247.3 243.1C241.4 252 228.4 257.3 217.7 255C207.2 252.9 197.7 244 194.9 233.7C193.4 228.1 194.3 219.3 196.8 214.3C200.2 207.8 203.7 204.3 210.2 201.1C217.9 197.2 227.8 196.8 235 200.1Z" fill="#63B2DB"/>
<path d="M119.2 123.2C116.2 126.5 115.6 130.2 117.4 133.8C118.2 135.4 119.6 137 120.3 137.3C121.3 137.7 121.9 140.4 122.2 146.7C122.8 156.7 124.3 161 129 166.4C133.3 171.3 139.1 174.1 146 174.7C157 175.7 166.6 170.4 171.4 160.8C173.6 156.5 174 154.2 174 147.2C174 139.2 174.1 138.8 177 136.3C183.3 131 179.6 121 171.3 121C162.7 121.1 158.9 130.1 165 136.2C167.8 138.9 168 139.7 168 146.3C167.9 157.4 164.1 164 155.8 167.5C148.4 170.5 139.5 168.4 133.8 162.4C130 158.3 128.8 154.5 128.8 146.1C128.9 139.9 129.2 138.5 131 136.8C133.8 134.2 135.1 130.4 134.4 127.4C132.9 121.4 123.4 118.8 119.2 123.2Z" fill="#63B2DB"/>
<path d="M207 211.6C205.9 212.9 206.6 214 211.8 219.3C215.2 222.8 218 226 218 226.5C218 227 215.3 230.2 212 233.5C207.7 237.9 206.1 240.1 206.6 241.3C207.8 244.6 211.4 243.1 217.5 237L223.4 231L229.6 237.1C233.6 241.1 236.4 243.1 237.6 242.8C241.4 242.1 240.3 238.9 234.1 232.6L228 226.4L234 220.5C238.1 216.5 240 213.8 239.8 212.5C239.2 208.5 235.9 209.6 229.6 215.9L223.4 222L217.5 216C211.4 209.8 209.2 208.9 207 211.6Z" fill="#63B2DB"/>
</svg>
